<svg width="20" height="20" viewBox="0 0 20 20" fill="none" xmlns="http://www.w3.org/2000/svg">
<path d="M18.7656 1.2344L8.75388 11.2461M1.28248 7.5912L18.47 1.08616C18.532 1.06244 18.5995 1.05719 18.6644 1.07103C18.7294 1.08487 18.7889 1.11722 18.8358 1.16416C18.8828 1.2111 18.9151 1.27063 18.929 1.33555C18.9428 1.40048 18.9376 1.46802 18.9138 1.53003L12.4088 18.7175C12.3829 18.7828 12.3377 18.8386 12.2792 18.8774C12.2206 18.9162 12.1516 18.9361 12.0815 18.9345C12.0113 18.9329 11.9432 18.9099 11.8865 18.8685C11.8298 18.8271 11.7872 18.7693 11.7643 18.7029L8.86818 11.5662C8.83442 11.4651 8.77759 11.3732 8.7022 11.2978C8.6268 11.2224 8.5349 11.1656 8.43377 11.1318L1.29709 8.23831C1.22985 8.21594 1.17118 8.17334 1.12909 8.11634C1.087 8.05934 1.06355 7.99073 1.06195 7.9199C1.06035 7.84906 1.08068 7.77946 1.12015 7.72062C1.15963 7.66178 1.21632 7.61658 1.28248 7.5912V7.5912Z" stroke="black" stroke-width="1.375" stroke-linecap="round" stroke-linejoin="round"/>
</svg>
